<svg width="25" height="24" viewBox="0 0 25 24" fill="none" xmlns="http://www.w3.org/2000/svg">
<path d="M6.238 10.9584C7.17874 10.9584 8.02756 10.4382 8.60811 9.69799C9.51014 8.54785 10.647 7.59067 11.9465 6.89862C12.789 6.44994 13.52 5.78337 13.8745 4.89712C14.1226 4.27699 14.25 3.61522 14.25 2.94732V2.20837C14.25 1.72512 14.6418 1.33337 15.125 1.33337C16.5747 1.33337 17.75 2.50863 17.75 3.95837C17.75 5.30194 17.4472 6.57478 16.9061 7.71236C16.5962 8.36376 17.0309 9.20837 17.7522 9.20837M17.7522 9.20837H21.399C22.5968 9.20837 23.6689 10.018 23.7957 11.209C23.8481 11.7016 23.875 12.2019 23.875 12.7084C23.875 16.0306 22.7178 19.0825 20.7845 21.4831C20.3323 22.0446 19.6332 22.3334 18.9123 22.3334H14.227C13.6627 22.3334 13.1021 22.2424 12.5668 22.064L8.93324 20.8528C8.39791 20.6743 7.83732 20.5834 7.27304 20.5834H5.38824M17.7522 9.20837H15.125M5.38824 20.5834C5.48485 20.822 5.58999 21.0564 5.70327 21.2859C5.93326 21.7521 5.61223 22.3334 5.09245 22.3334H4.03337C2.99654 22.3334 2.0349 21.729 1.73232 20.7373C1.33743 19.4431 1.125 18.0693 1.125 16.6459C1.125 14.8347 1.46894 13.1038 2.09507 11.515C2.45097 10.6119 3.36189 10.0834 4.33258 10.0834H5.5608C6.11138 10.0834 6.43019 10.7319 6.14435 11.2025C5.1802 12.7898 4.625 14.653 4.625 16.6459C4.625 18.0383 4.89604 19.3674 5.38824 20.5834Z" stroke="white" stroke-width="2" stroke-linecap="round" stroke-linejoin="round"/>
</svg>
